<svg id="组_105" data-name="组 105" xmlns="http://www.w3.org/2000/svg" xmlns:xlink="http://www.w3.org/1999/xlink" width="18.824" height="19.878" viewBox="0 0 18.824 19.878">
  <defs>
    <clipPath id="clip-path">
      <rect id="矩形_15" data-name="矩形 15" width="18.824" height="19.878" fill="#8abbcb"/>
    </clipPath>
  </defs>
  <path id="路径_18" data-name="路径 18" d="M399.185,565.515a.6.6,0,0,0,.6.6h5.489a.6.6,0,0,0,0-1.21H399.79a.6.6,0,0,0-.6.6Zm0,0" transform="translate(-387.077 -551.198)" fill="#8abbcb"/>
  <path id="路径_19" data-name="路径 19" d="M405.279,658.3H399.79a.6.6,0,1,0,0,1.21h5.489a.6.6,0,0,0,0-1.21Zm0,0" transform="translate(-387.077 -642.126)" fill="#8abbcb"/>
  <g id="组_30" data-name="组 30" transform="translate(0 0)">
    <g id="组_29" data-name="组 29" clip-path="url(#clip-path)">
      <path id="路径_20" data-name="路径 20" d="M405.279,751.9H399.79a.6.6,0,1,0,0,1.21h5.489a.6.6,0,0,0,0-1.21Zm0,0" transform="translate(-387.077 -733.252)" fill="#8abbcb"/>
      <path id="路径_21" data-name="路径 21" d="M-58.794,63.9a2.086,2.086,0,0,1-.113-.772v-.011A7.846,7.846,0,0,1-51.071,55.5a7.853,7.853,0,0,1,5.719,2.481h1.593a9.093,9.093,0,0,0-.975-1.121A9.042,9.042,0,0,0-48.366,54.7a4.979,4.979,0,0,0,2.273-4.177,4.984,4.984,0,0,0-4.979-4.979,4.984,4.984,0,0,0-4.979,4.979A4.979,4.979,0,0,0-53.777,54.7a9.011,9.011,0,0,0-3.632,2.16,8.906,8.906,0,0,0-2.711,6.226A3.352,3.352,0,0,0-59.9,64.4a1.825,1.825,0,0,0,1.677.964l8.954.008V64.16l-8.962-.008s-.459-.019-.564-.254Zm3.953-13.379a3.773,3.773,0,0,1,3.769-3.769A3.773,3.773,0,0,1-47.3,50.519a3.773,3.773,0,0,1-3.769,3.769,3.773,3.773,0,0,1-3.769-3.769Zm0,0" transform="translate(60.117 -45.523)" fill="#8abbcb"/>
    </g>
  </g>
</svg>
