<svg xmlns="http://www.w3.org/2000/svg" width="71" height="74" viewBox="0 0 71 74"><defs><style>.a,.b{fill:#fff;}.a{opacity:0;}</style></defs><g transform="translate(-1044 -97)"><rect class="a" width="71" height="74" transform="translate(1044 97)"/><circle class="b" cx="15.793" cy="15.793" r="15.793" transform="translate(1064.009 99.082)"/><path class="b" d="M1084.582,135.106h-.3l-5.169,8.953-5.169-8.953h-.3a28.418,28.418,0,0,0-28.418,28.418h0a3.527,3.527,0,0,0,3.527,3.527h60.72a3.527,3.527,0,0,0,3.528-3.527h0A28.418,28.418,0,0,0,1084.582,135.106Zm-.662,22.217h0l-4.962,5.837L1074,157.323h0l4.961-12.647,4.962,12.647Z"/></g></svg>