<svg xmlns="http://www.w3.org/2000/svg" xmlns:xlink="http://www.w3.org/1999/xlink" width="67" height="72" viewBox="0 0 67 72"><defs><style>.a{fill:none;}.b,.d{fill:#fff;}.b{opacity:0;}.c{clip-path:url(#a);}</style><clipPath id="a"><rect class="a" width="62" height="64.836" transform="translate(953 247.004)"/></clipPath></defs><g transform="translate(-949 -245)"><rect class="b" width="67" height="72" transform="translate(949 245)"/><g class="c"><path class="d" d="M1012.148,285.344a16.848,16.848,0,0,0-20.9,26.4H958.391A5.391,5.391,0,0,1,953,306.355V252.442a5.391,5.391,0,0,1,5.391-5.391h28.6v22.424a2.691,2.691,0,0,0,2.7,2.7h22.471Zm0-17.213h-21.12v-21.08h.078l21.042,21.041Zm-51.733-4.906a2.023,2.023,0,1,0,0,4.047h17.526a2.024,2.024,0,1,0-.008-4.047Zm0,8.086a2.024,2.024,0,0,0,0,4.048h17.526a2.024,2.024,0,0,0,0-4.048Zm41.779,14.83a12.8,12.8,0,0,1,.008,25.605h-.008a12.8,12.8,0,0,1,0-25.605Zm5.6,8.212-6.18,7.783-4.946-3.712a2.02,2.02,0,0,0-2.431,3.227l6.517,4.9a2.021,2.021,0,0,0,2.8-.359l7.408-9.322a2.02,2.02,0,0,0-3.1-2.586.547.547,0,0,0-.062.07Zm0,0"/></g></g></svg>