<svg xmlns="http://www.w3.org/2000/svg" width="79" height="65" viewBox="0 0 79 65"><defs><style>.a,.b{fill:#fff;}.a{opacity:0;}</style></defs><g transform="translate(-1133 -107)"><rect class="a" width="79" height="65" transform="translate(1133 107)"/><path class="b" d="M1199.16,109.044h-3.492c.01.161.024.321.024.485a7.787,7.787,0,0,1-7.787,7.787H1158.59a7.787,7.787,0,0,1-7.787-7.787c0-.164.014-.324.025-.485h-3.493a8.442,8.442,0,0,0-8.441,8.442v42.651a8.441,8.441,0,0,0,8.441,8.442h51.825a8.441,8.441,0,0,0,8.441-8.442V117.486A8.442,8.442,0,0,0,1199.16,109.044ZM1150.5,145.808l16.531-16.532a2.422,2.422,0,0,1,3.523.1l7.74,8.708,9.9-9.9-.186-.12a1.916,1.916,0,0,1,.153-3.316l5.283-2.734a1.917,1.917,0,0,1,2.8,1.791l-.274,5.942a1.917,1.917,0,0,1-2.949,1.526l-.646-.414L1179.9,143.33a2.42,2.42,0,0,1-3.523-.1l-7.74-8.708-14.715,14.716a2.422,2.422,0,0,1-3.425-3.426Zm46.358,15.022a2.291,2.291,0,0,1-2.29,2.291h-42.639a2.291,2.291,0,0,1-2.29-2.291v-1.005a2.29,2.29,0,0,1,2.29-2.29h42.639a2.29,2.29,0,0,1,2.29,2.29Z"/></g></svg>