<svg xmlns="http://www.w3.org/2000/svg" width="70" height="73" viewBox="0 0 70 73"><defs><style>.a,.b{fill:#fff;}.a{opacity:0;}</style></defs><g transform="translate(-834 -92)"><rect class="a" width="70" height="73" transform="translate(834 92)"/><path class="b" d="M875.42,95.965l24.967,25.347a8.982,8.982,0,0,1-6.4,15.284H844.054a8.981,8.981,0,0,1-6.4-15.284l24.967-25.347A8.981,8.981,0,0,1,875.42,95.965Z"/><path class="b" d="M883.744,119.582H852.793a8.617,8.617,0,0,0-8.616,8.616v27.186A8.616,8.616,0,0,0,852.793,164H863V141.652a.989.989,0,0,1,.989-.99h8.561a.99.99,0,0,1,.989.99V164h10.206a8.615,8.615,0,0,0,8.615-8.616V128.2A8.616,8.616,0,0,0,883.744,119.582Z"/></g></svg>