<svg xmlns="http://www.w3.org/2000/svg" width="104.133" height="104.133" viewBox="0 0 104.133 104.133"><defs><style>.a{fill:#fff;}</style></defs><g transform="translate(-464.274 -229.976)"><path class="a" d="M516.34,229.976a52.067,52.067,0,1,0,52.067,52.066A52.067,52.067,0,0,0,516.34,229.976Zm0,54.433a20.116,20.116,0,0,0-20.107,19.513l-.01.6v4.733a3.55,3.55,0,0,1-7.083.341l-.017-.341v-4.733A27.216,27.216,0,0,1,504.318,280.1a18.928,18.928,0,1,1,12.614,4.3Zm33.427,17.75-4.78,8.283a4.733,4.733,0,0,1-4.1,2.367h-9.566a4.733,4.733,0,0,1-4.1-2.367l-4.78-8.283a4.734,4.734,0,0,1,0-4.734l4.78-8.283a4.733,4.733,0,0,1,4.1-2.367h9.566a4.733,4.733,0,0,1,4.1,2.367l4.78,8.283A4.734,4.734,0,0,1,549.767,302.159Z" transform="translate(0 0)"/><path class="a" d="M936.409,690.776l-3.415,5.916,3.415,5.917h6.832l3.415-5.919-3.415-5.914Z" transform="translate(-403.721 -396.9)"/><path class="a" d="M766.232,400.644a11.833,11.833,0,1,0,11.833,11.833A11.832,11.832,0,0,0,766.232,400.644Z" transform="translate(-249.892 -147.001)"/></g></svg>