<svg xmlns="http://www.w3.org/2000/svg" width="70" height="70" viewBox="0 0 70 70"><defs><style>.a,.b{fill:#fff;}.a{opacity:0;}</style></defs><g transform="translate(-1143 -243)"><rect class="a" width="70" height="70" transform="translate(1143 243)"/><path class="b" d="M1208.942,249h-48.788a2.107,2.107,0,0,0-2.133,1.709A2,2,0,0,0,1160,253h42.738a4.262,4.262,0,0,1,4.262,4.262v42.584a2.107,2.107,0,0,0,1.709,2.133A2,2,0,0,0,1211,300V251.058A2.059,2.059,0,0,0,1208.942,249Z"/><path class="b" d="M1199.278,257h-49.556a3.723,3.723,0,0,0-3.722,3.722v47.556a3.723,3.723,0,0,0,3.722,3.722h49.556a3.723,3.723,0,0,0,3.722-3.722V260.722A3.723,3.723,0,0,0,1199.278,257Zm-8.3,22.737a2,2,0,0,1-2,2h-13.588v6.451h13.336a2,2,0,0,1,2,2v.3a2,2,0,0,1-2,2h-13.336V305a2,2,0,0,1-2,2h-.3a2,2,0,0,1-2-2V292.487H1157.5a2,2,0,0,1-2-2v-.3a2,2,0,0,1,2-2h13.588v-6.451h-13.336a2,2,0,0,1-2-2v-.3a2,2,0,0,1,2-2h11.566l-7.372-9.616a2.372,2.372,0,1,1,3.759-2.894l7.554,9.852,7.554-9.852a2.372,2.372,0,1,1,3.759,2.894l-7.373,9.616h11.776a2,2,0,0,1,2,2Z"/></g></svg>