<svg xmlns="http://www.w3.org/2000/svg" xmlns:xlink="http://www.w3.org/1999/xlink" width="83" height="72" viewBox="0 0 83 72"><defs><style>.a{fill:none;}.b,.d{fill:#fff;}.b{opacity:0;}.c{clip-path:url(#a);}</style><clipPath id="a"><rect class="a" width="80" height="65.269" transform="translate(945 104.611)"/></clipPath></defs><g transform="translate(-944 -100)"><rect class="b" width="83" height="72" transform="translate(944 100)"/><g class="c"><path class="d" d="M1024.954,155.93c0,4-1.6,4.8-7.728,4.8-1.6-15.455-9.326-22.916-17.32-26.646a22.493,22.493,0,0,0,.533-25.314c6.129-1.865,12.524,2.4,14.123,9.06,1.332,5.862-1.332,12.257-6.662,14.655,10.126,2.665,17.054,12.257,17.054,23.448Zm-32.775-20.517c9.859,2.132,21.317,9.06,21.317,29.044,0,5.329-6.661,5.329-28.245,5.329-21.849,0-28.244,0-28.244-5.329,0-19.718,11.457-26.912,21.316-29.044-7.727-4.263-10.392-14.122-6.661-22.116s13.056-10.925,20.251-6.661a16.852,16.852,0,0,1,6.128,21.849,15.186,15.186,0,0,1-5.862,6.928Zm-22.116-1.332c-7.994,3.73-15.721,11.457-17.32,26.646-6.128,0-7.727-.8-7.727-4.8-.533-11.191,6.661-21.05,16.787-23.448a12.861,12.861,0,0,1-5.862-16.52c2.4-5.6,7.993-8.527,13.589-6.928a22.084,22.084,0,0,0,.533,25.047Zm0,0"/></g></g></svg>