<svg xmlns="http://www.w3.org/2000/svg" width="66" height="72" viewBox="0 0 66 72"><defs><style>.a,.b{fill:#fff;}.a{opacity:0;}</style></defs><g transform="translate(-865 -244)"><rect class="a" width="66" height="72" transform="translate(865 244)"/><path class="b" d="M919.274,247.992H874.8a7.727,7.727,0,0,0-7.727,7.726v50.556A7.727,7.727,0,0,0,874.8,314h44.476A7.726,7.726,0,0,0,927,306.274V255.718A7.726,7.726,0,0,0,919.274,247.992Zm-49.225,9.066a1.25,1.25,0,0,1,1.25-1.25h51.349a1.25,1.25,0,0,1,1.25,1.25v.975a1.25,1.25,0,0,1-1.25,1.25H871.3a1.25,1.25,0,0,1-1.25-1.25Zm0,12.268a1.25,1.25,0,0,1,1.25-1.25h20.892a1.25,1.25,0,0,1,1.25,1.25v.975a1.25,1.25,0,0,1-1.25,1.25H871.3a1.25,1.25,0,0,1-1.25-1.25Zm0,12.268a1.25,1.25,0,0,1,1.25-1.25h17.237a1.25,1.25,0,0,1,1.25,1.25v.975a1.25,1.25,0,0,1-1.25,1.25H871.3a1.25,1.25,0,0,1-1.25-1.25Zm0,12.268a1.25,1.25,0,0,1,1.25-1.25H894.75a1.25,1.25,0,0,1,1.25,1.25v.975a1.25,1.25,0,0,1-1.25,1.25H871.3a1.25,1.25,0,0,1-1.25-1.25Zm52.112,13.243a1.25,1.25,0,0,1-1.25,1.25H871.3a1.25,1.25,0,0,1-1.25-1.25v-.975a1.25,1.25,0,0,1,1.25-1.25h49.612a1.25,1.25,0,0,1,1.25,1.25Zm1.495-11.3-1.572,1.21a1.251,1.251,0,0,1-1.753-.229l-6.677-8.684a12.951,12.951,0,0,1-6.3,1.639,13.086,13.086,0,0,1-12.813-15.756,13.065,13.065,0,1,1,22.6,11.3l6.742,8.769A1.249,1.249,0,0,1,923.656,295.806Z"/><path class="b" d="M916.2,278.537a9.064,9.064,0,0,0-7.007-10.735,9.134,9.134,0,0,0-1.883-.2,9.067,9.067,0,1,0,8.89,10.932Z"/></g></svg>