<svg xmlns="http://www.w3.org/2000/svg" xmlns:xlink="http://www.w3.org/1999/xlink" width="69" height="69" viewBox="0 0 69 69"><defs><style>.a{fill:none;}.b,.d{fill:#fff;}.b{opacity:0;}.c{clip-path:url(#a);}</style><clipPath id="a"><rect class="a" width="66.105" height="65.8" transform="translate(1238 248)"/></clipPath></defs><g transform="translate(-1237 -246)"><rect class="b" width="69" height="69" transform="translate(1237 246)"/><g class="c"><path class="d" d="M1266.226,282.642l-26.082-13.176a3.918,3.918,0,0,1,0-7l26.114-13.2a11.118,11.118,0,0,1,10-.016l25.369,12.732a4.334,4.334,0,0,1,.024,7.736l-25.378,12.907a11.123,11.123,0,0,1-10.048.016Zm0,0"/><path class="d" d="M1271.175,298.605a17,17,0,0,1-7.474-1.726l-23.644-11.624a3.6,3.6,0,0,1,3.175-6.469l23.643,11.632a9.815,9.815,0,0,0,8.647-.024l23.232-11.584a3.6,3.6,0,0,1,3.215,6.445l-23.224,11.576a16.976,16.976,0,0,1-7.57,1.774Zm0,0"/><path class="d" d="M1271.175,313.7a17,17,0,0,1-7.474-1.726l-23.644-11.624a3.6,3.6,0,0,1,3.175-6.469l23.643,11.624a9.815,9.815,0,0,0,8.647-.024l23.232-11.584a3.6,3.6,0,0,1,3.215,6.445l-23.224,11.584a16.976,16.976,0,0,1-7.57,1.774Zm0,0"/></g></g></svg>