<svg id="组_11" data-name="组 11" xmlns="http://www.w3.org/2000/svg" xmlns:xlink="http://www.w3.org/1999/xlink" width="19.298" height="18.312" viewBox="0 0 19.298 18.312">
  <defs>
    <clipPath id="clip-path">
      <rect id="矩形_9" data-name="矩形 9" width="19.298" height="18.312" fill="#8abbcb"/>
    </clipPath>
  </defs>
  <g id="组_10" data-name="组 10" clip-path="url(#clip-path)">
    <path id="路径_6" data-name="路径 6" d="M-67.9,82.66h6.049A1.5,1.5,0,0,0-60.8,82.2a1.5,1.5,0,0,0,.421-1.066V77.81a.52.52,0,0,0-.146-.371.519.519,0,0,0-.366-.158H-67.9a.519.519,0,0,0-.366.158.52.52,0,0,0-.146.371v4.321a.521.521,0,0,0,.147.37.521.521,0,0,0,.366.158Zm1.111-6.261H-62a.52.52,0,0,0,.366-.158.52.52,0,0,0,.146-.371V73.84A.52.52,0,0,0-62,73.316h-4.786a.519.519,0,0,0-.366.158.52.52,0,0,0-.146.372v2.03a.52.52,0,0,0,.146.371.52.52,0,0,0,.366.158Zm-6.7,6.261H-69.7a.52.52,0,0,0,.366-.158.52.52,0,0,0,.146-.371v-5.2a.522.522,0,0,1,.514-.529.521.521,0,0,0,.507-.529V74.7a.52.52,0,0,0-.146-.371.52.52,0,0,0-.366-.158h-4.8a.52.52,0,0,0-.366.158A.52.52,0,0,0-74,74.7v7.429a.519.519,0,0,0,.146.371.52.52,0,0,0,.366.158ZM-55.57,70.678H-56.1a3.044,3.044,0,0,0-2.992,3.084l-.006,8.366a1.817,1.817,0,0,1-.513,1.293,1.816,1.816,0,0,1-1.276.551H-73.475a.52.52,0,0,0-.366.158.52.52,0,0,0-.146.371v2.205a.52.52,0,0,0,.146.371.52.52,0,0,0,.366.158h1.23a2.212,2.212,0,0,1,2.177-2.172,2.211,2.211,0,0,1,2.177,2.172h5.277A2.178,2.178,0,0,1-60.438,85.1a2.178,2.178,0,0,1,2.177,2.131,1.9,1.9,0,0,0,1.871-1.928V74.668a1.173,1.173,0,0,1,1.154-1.19.52.52,0,0,0,.37-.156.519.519,0,0,0,.148-.373V71.56a.866.866,0,0,0-.243-.618.866.866,0,0,0-.609-.264ZM-70.008,85.835a1.556,1.556,0,0,0-1.577,1.506,1.556,1.556,0,0,0,1.479,1.6,1.556,1.556,0,0,0,1.559-1.5A1.556,1.556,0,0,0-70,85.836Zm9.614,0a1.556,1.556,0,0,0-1.51.9,1.556,1.556,0,0,0,.3,1.734,1.556,1.556,0,0,0,1.724.35,1.556,1.556,0,0,0,.948-1.481,1.532,1.532,0,0,0-1.457-1.5Zm0,0" transform="translate(73.999 -70.658)" fill="#8abbcb"/>
  </g>
</svg>
