<svg id="组_101" data-name="组 101" xmlns="http://www.w3.org/2000/svg" xmlns:xlink="http://www.w3.org/1999/xlink" width="16.514" height="15.868" viewBox="0 0 16.514 15.868">
  <defs>
    <clipPath id="clip-path">
      <rect id="矩形_13" data-name="矩形 13" width="16.514" height="15.868" fill="#8abbcb"/>
    </clipPath>
  </defs>
  <g id="组_23" data-name="组 23" transform="translate(0 0)">
    <g id="组_22" data-name="组 22" clip-path="url(#clip-path)">
      <path id="路径_14" data-name="路径 14" d="M-33.187,94.956a.579.579,0,0,0-.579.579v7.134a.91.91,0,0,1-.907.913H-47.058a.912.912,0,0,1-.907-.913V90.96a.91.91,0,0,1,.907-.913h8.247a.579.579,0,0,0,.579-.579.579.579,0,0,0-.579-.579h-8.247a2.068,2.068,0,0,0-2.062,2.068v11.709a2.067,2.067,0,0,0,2.062,2.068h12.383a2.072,2.072,0,0,0,2.066-2.068V95.535a.579.579,0,0,0-.579-.579Zm-.187-3.878c.04-.04.088-.086.141-.137s.114-.111.183-.18a.677.677,0,0,0,.137-.214.6.6,0,0,0,.042-.222,1.116,1.116,0,0,0-.021-.214.837.837,0,0,0-.055-.179,2,2,0,0,0-.338-.493,1.565,1.565,0,0,0-.4-.328,1.256,1.256,0,0,0-.2-.076A.905.905,0,0,0-34.121,89a.832.832,0,0,0-.252.034.728.728,0,0,0-.248.132c-.063.052-.141.122-.235.21s-.176.164-.244.227l1.6,1.6c.04-.034.082-.074.128-.12Zm0,0" transform="translate(49.117 -88.89)" fill="#8abbcb"/>
    </g>
  </g>
  <path id="路径_15" data-name="路径 15" d="M85.424,148.754c-.124.13-.2.21-.239.244a1.6,1.6,0,0,0-.183.214,1.466,1.466,0,0,0-.115.218,1.913,1.913,0,0,0-.111.283c-.046.137-.094.286-.141.449s-.094.313-.137.47a2.678,2.678,0,0,0-.082.346.4.4,0,0,0,.042.317c.052.063.153.086.308.069.074-.011.187-.036.338-.076s.311-.088.479-.141.33-.109.483-.166.269-.1.349-.145a1.067,1.067,0,0,0,.231-.137c.074-.057.139-.111.2-.162a2.943,2.943,0,0,0,.214-.2c.118-.118.271-.271.452-.456s.388-.39.615-.611l.684-.691,1.837-1.837-1.6-1.606-3.153,3.153c-.187.187-.344.346-.47.474Zm3.027,3.823H79.3a.579.579,0,0,0,0,1.157h9.152a.579.579,0,1,0,0-1.157Zm0,2.841H79.3a.579.579,0,0,0,0,1.157h9.152a.579.579,0,1,0,0-1.157Zm0,0" transform="translate(-75.672 -143.786)" fill="#8abbcb"/>
</svg>
