<svg xmlns="http://www.w3.org/2000/svg" xmlns:xlink="http://www.w3.org/1999/xlink" width="68" height="73" viewBox="0 0 68 73"><defs><style>.a{fill:none;}.b,.d{fill:#fff;}.b{opacity:0;}.c{clip-path:url(#a);}</style><clipPath id="a"><rect class="a" width="61" height="68.831" transform="translate(1239 101.049)"/></clipPath></defs><g transform="translate(-1235 -99)"><rect class="b" width="68" height="73" transform="translate(1235 99)"/><g class="c"><path class="d" d="M1287.175,140.077a1.114,1.114,0,0,1,1.114,1.114v3.616a10.192,10.192,0,0,1,1.722.713l2.562-2.554a1.113,1.113,0,0,1,1.57,0l2.925,2.925a1.114,1.114,0,0,1,0,1.574l-2.554,2.558a10.269,10.269,0,0,1,.713,1.719h3.616a1.113,1.113,0,0,1,1.113,1.113v4.139a1.114,1.114,0,0,1-1.113,1.114h-3.616a10.534,10.534,0,0,1-.713,1.723l2.554,2.561a1.113,1.113,0,0,1,0,1.57l-2.925,2.925a1.112,1.112,0,0,1-1.574,0l-2.558-2.554a10.446,10.446,0,0,1-1.719.713v3.616a1.113,1.113,0,0,1-1.113,1.113h-4.139a1.113,1.113,0,0,1-1.114-1.113v-3.616a10.528,10.528,0,0,1-1.723-.713l-2.561,2.554a1.114,1.114,0,0,1-1.571,0l-2.924-2.925a1.112,1.112,0,0,1,0-1.574l2.554-2.557a10.471,10.471,0,0,1-.713-1.719h-3.616a1.114,1.114,0,0,1-1.114-1.114v-4.139a1.114,1.114,0,0,1,1.114-1.114h3.616a10.5,10.5,0,0,1,.713-1.722l-2.554-2.562a1.111,1.111,0,0,1,0-1.57l2.924-2.925a1.114,1.114,0,0,1,1.575,0l2.557,2.554a10.574,10.574,0,0,1,1.719-.713v-3.616a1.114,1.114,0,0,1,1.114-1.114Zm-9.069-1.856a18.664,18.664,0,0,1,3.334.3l.23.048a2.973,2.973,0,0,0-1.526,2.09,2.881,2.881,0,0,0-.049.9v1.124l-.519-.5-.609-.6a2.976,2.976,0,0,0-4.2.018l-2.933,2.959a2.971,2.971,0,0,0,0,4.188l1.162,1.165h-1.622a2.971,2.971,0,0,0-2.948,2.6l-.022.375v4.083a2.969,2.969,0,0,0,2.992,2.974h1.6l-1.136,1.132a2.976,2.976,0,0,0-.3,3.887l.289.334,2.624,2.624h-28.049a7.424,7.424,0,0,1-7.191-9.276l1.67-6.486a18.563,18.563,0,0,1,17.975-13.936Zm7,11.4a5.3,5.3,0,1,0,5.3,5.305,5.3,5.3,0,0,0-5.3-5.305ZM1268.4,101.1a16.705,16.705,0,1,1-16.7,16.705,16.7,16.7,0,0,1,16.7-16.705Zm0,0"/></g></g></svg>