<svg id="组_103" data-name="组 103" xmlns="http://www.w3.org/2000/svg" xmlns:xlink="http://www.w3.org/1999/xlink" width="20.664" height="20.575" viewBox="0 0 20.664 20.575">
  <defs>
    <clipPath id="clip-path">
      <rect id="矩形_11" data-name="矩形 11" width="20.664" height="20.575" fill="#8abbcb"/>
    </clipPath>
  </defs>
  <g id="组_17" data-name="组 17" transform="translate(0 0)">
    <g id="组_16" data-name="组 16" clip-path="url(#clip-path)">
      <path id="路径_9" data-name="路径 9" d="M220.657,471.115h10.317v1.29H220.657Zm1.859-5.161h8.458v1.29h-8.458Zm-4.094,2.581h12.514v1.29H218.422Zm0,0" transform="translate(-210.33 -454.414)" fill="#8abbcb"/>
      <path id="路径_10" data-name="路径 10" d="M-47.745,65.21-49.1,62.862a.771.771,0,0,0-.858-.362l-2.172.553a.773.773,0,0,1-.646-.132,7.735,7.735,0,0,0-1.4-.809.774.774,0,0,1-.438-.494l-.605-2.152a.771.771,0,0,0-.742-.563h-2.712a.771.771,0,0,0-.743.563l-.605,2.152a.774.774,0,0,1-.438.494,7.737,7.737,0,0,0-1.41.814.773.773,0,0,1-.647.132l-2.16-.55a.771.771,0,0,0-.858.362L-66.9,65.219a.771.771,0,0,0,.116.924l1.553,1.591a.784.784,0,0,1,.212.641,6.653,6.653,0,0,0,0,1.615.785.785,0,0,1-.212.642l-1.549,1.586a.771.771,0,0,0-.116.924l1.356,2.349a.771.771,0,0,0,.858.362l2.161-.55a.773.773,0,0,1,.646.132,7.732,7.732,0,0,0,1.416.815.774.774,0,0,1,.439.495l.6,2.144a.771.771,0,0,0,.742.563h2.712a.771.771,0,0,0,.742-.563l.206-.731-2.683,0a.771.771,0,0,1-.742-.563l-.226-.8-.285-1.012a.784.784,0,0,0-.506-.521,13.383,13.383,0,0,1-2.064-1.191.784.784,0,0,0-.7-.175l-1.023.261-.806.205A.771.771,0,0,1-64.907,74l-.379-.656a.771.771,0,0,1,.116-.924l.581-.6.734-.752a.783.783,0,0,0,.2-.7,13.227,13.227,0,0,1,0-2.38.782.782,0,0,0-.2-.7l-.735-.753-.583-.6a.771.771,0,0,1-.116-.924l.379-.656A.771.771,0,0,1-64.053,64l.806.205,1.023.261a.784.784,0,0,0,.7-.176,13.461,13.461,0,0,1,2.06-1.191.784.784,0,0,0,.505-.521l.285-1.014.227-.807a.771.771,0,0,1,.742-.563h.758a.771.771,0,0,1,.742.563l.227.806.285,1.015a.784.784,0,0,0,.506.521c.36.126,1.13.528,1.13.528s.645.421.924.658a.784.784,0,0,0,.7.175L-51.4,64.2l.816-.208a.771.771,0,0,1,.858.361l.379.656a.772.772,0,0,1-.116.924l-.588.6-.734.752a.783.783,0,0,0-.2.7,9.068,9.068,0,0,1,.054,1.163h1.352a7.1,7.1,0,0,0-.048-.78.784.784,0,0,1,.212-.641l1.557-1.6a.771.771,0,0,0,.116-.924Zm0,0" transform="translate(66.999 -58.903)" fill="#8abbcb"/>
    </g>
  </g>
  <path id="路径_11" data-name="路径 11" d="M97.384,239.309a5.156,5.156,0,0,0-2.855,9.454v-1.688a3.867,3.867,0,1,1,6.723-2.631h1.29a5.166,5.166,0,0,0-5.159-5.135Zm0,0" transform="translate(-87.707 -234.194)" fill="#8abbcb"/>
</svg>
