<svg xmlns="http://www.w3.org/2000/svg" width="76" height="79" viewBox="0 0 76 79"><defs><style>.a,.c{fill:#fff;}.a{opacity:0;}.b{fill:#fefefe;}</style></defs><g transform="translate(-1044 -240)"><rect class="a" width="76" height="79" transform="translate(1044 240)"/><path class="b" d="M1102.027,299.027A15.991,15.991,0,0,0,1086.054,315H1118A15.991,15.991,0,0,0,1102.027,299.027Z"/><circle class="c" cx="6.957" cy="6.957" r="6.957" transform="translate(1093.86 278.986)"/><path class="c" d="M1102.027,296.179a18.711,18.711,0,0,1,6.883,1.321v-6.1a9.767,9.767,0,1,1,.049-10.833h3.881a4.44,4.44,0,0,0,3.118-7.6l-31.092-30.66a4.44,4.44,0,0,0-6.235,0l-31.092,30.66a4.441,4.441,0,0,0,3.118,7.6h3.93V309.7a4.954,4.954,0,0,0,4.955,4.954h23.682A18.833,18.833,0,0,1,1102.027,296.179Zm-33.317,13.544a1.732,1.732,0,0,1-1.732,1.732h-5.2a1.731,1.731,0,0,1-1.732-1.732v-5.2a1.732,1.732,0,0,1,1.732-1.732h5.2a1.733,1.733,0,0,1,1.732,1.732Zm0-10.831a1.733,1.733,0,0,1-1.732,1.732h-5.2a1.732,1.732,0,0,1-1.732-1.732v-5.2a1.731,1.731,0,0,1,1.732-1.732h5.2a1.732,1.732,0,0,1,1.732,1.732Zm0-10.832a1.733,1.733,0,0,1-1.732,1.733h-5.2a1.732,1.732,0,0,1-1.732-1.733v-5.2a1.731,1.731,0,0,1,1.732-1.732h5.2a1.732,1.732,0,0,1,1.732,1.732Zm11.914,21.663a1.731,1.731,0,0,1-1.732,1.732h-5.2a1.732,1.732,0,0,1-1.733-1.732v-5.2a1.733,1.733,0,0,1,1.733-1.732h5.2a1.732,1.732,0,0,1,1.732,1.732Zm0-10.831a1.732,1.732,0,0,1-1.732,1.732h-5.2a1.733,1.733,0,0,1-1.733-1.732v-5.2a1.732,1.732,0,0,1,1.733-1.732h5.2a1.731,1.731,0,0,1,1.732,1.732Z"/><path class="c" d="M1102.027,299.027a15.982,15.982,0,0,0-15.955,15.622h17.883a4.954,4.954,0,0,0,4.955-4.954v-9.087A15.845,15.845,0,0,0,1102.027,299.027Z"/></g></svg>