<svg id="组_108" data-name="组 108" xmlns="http://www.w3.org/2000/svg" xmlns:xlink="http://www.w3.org/1999/xlink" width="19.049" height="17.994" viewBox="0 0 19.049 17.994">
  <defs>
    <clipPath id="clip-path">
      <rect id="矩形_8" data-name="矩形 8" width="19.049" height="17.994" fill="#8abbcb"/>
    </clipPath>
  </defs>
  <g id="组_8" data-name="组 8">
    <g id="组_7" data-name="组 7" transform="translate(0 0)" clip-path="url(#clip-path)">
      <path id="路径_3" data-name="路径 3" d="M80.694,551.081h-1.11c-.492,0-.626.135-.626.626v1.11c0,.492.135.626.626.626h1.11c.492,0,.626-.135.626-.626v-1.15c-.04-.46-.182-.587-.626-.587Zm-3.71,3.742h-1.11c-.492,0-.626.135-.626.626v1.142c0,.492.135.626.626.626h1.11c.492,0,.626-.135.626-.626v-1.158c-.04-.484-.174-.61-.626-.61Zm7.421,0H83.278c-.492,0-.626.135-.626.626v1.142c0,.492.135.626.626.626h1.11c.492,0,.626-.135.626-.626v-1.158c-.024-.484-.151-.61-.61-.61Zm0,0" transform="translate(-70.588 -539.246)" fill="#8abbcb"/>
      <path id="路径_4" data-name="路径 4" d="M-118.33,18.739l-8.705-6.081a.793.793,0,0,0-.254-.174.912.912,0,0,0-.9.174l-8.65,6.113a.626.626,0,0,0-.277.412.832.832,0,0,0,.159.61.793.793,0,0,0,.539.341.61.61,0,0,0,.468-.1l.42-.309v9.855a.793.793,0,0,0,.4.687.793.793,0,0,0,.793,0,.793.793,0,0,0,.4-.687V18.62l6.343-4.471,6.485,4.535V29.545a.793.793,0,0,0,.793.793.793.793,0,0,0,.793-.793V19.793l.309.206a.721.721,0,0,0,.975-.206.793.793,0,0,0-.087-1.054Zm0,0" transform="translate(137.117 -12.421)" fill="#8abbcb"/>
    </g>
  </g>
  <path id="路径_5" data-name="路径 5" d="M80.694,388.081h-1.11c-.492,0-.626.135-.626.626v1.142c0,.492.135.626.626.626h1.11c.492,0,.626-.135.626-.626v-1.158c-.04-.484-.174-.61-.626-.61Zm-3.71-7.484h-1.11c-.492,0-.626.135-.626.626v1.142c0,.492.135.626.626.626h1.11c.492,0,.626-.135.626-.626v-1.15c-.04-.5-.159-.618-.626-.618Zm0,3.742h-1.11c-.492,0-.626.135-.626.626v1.11c0,.492.135.626.626.626h1.11c.492,0,.626-.135.626-.626v-1.15c-.04-.46-.174-.587-.626-.587Zm0,0" transform="translate(-70.588 -372.504)" fill="#8abbcb"/>
</svg>
